<?xml version="1.0" encoding="utf-8"?>
<!-- Generator: Adobe Illustrator 19.2.0, SVG Export Plug-In . SVG Version: 6.00 Build 0)  -->
<svg version="1.1" id="圖層_1" xmlns="http://www.w3.org/2000/svg" xmlns:xlink="http://www.w3.org/1999/xlink" x="0px" y="0px"
	 viewBox="0 0 821.2 439.8" style="enable-background:new 0 0 821.2 439.8;" xml:space="preserve">
<style type="text/css">
	.st0{fill:#E2E217;}
	.st1{fill:#F98673;}
	.st2{fill:#11D3CE;}
	.st3{fill:#E57B51;}
	.st4{fill:#F476BE;}
	.st5{fill:#257CE5;}
	.st6{fill:#7AD816;}
	.st7{fill:#FFFFFF;}
	.st8{fill:#054908;}
	.st9{fill:#2D2D2D;}
	.st10{fill:none;}
</style>
<title>beigan_map</title>
<polygon class="st0" points="61.1,213.9 209.9,308.3 209.9,370.7 130.2,439.8 33.2,419.9 0,380 22.6,241.8 "/>
<polygon class="st1" points="660.4,182.7 653.7,221.3 639.1,322.9 692.3,354.8 685.6,396 777.3,378.7 777.3,329.5 821.2,233.9 
	742.8,147.5 "/>
<polygon class="st2" points="228.3,49.7 290.2,315.2 209.9,277.7 209.9,308.3 61.1,213.9 114.3,175.4 194,58.5 "/>
<polygon class="st3" points="422.5,0 437.1,161.4 264.6,205.5 228.3,49.7 "/>
<polygon class="st4" points="290.2,315.2 312.2,325.5 515.5,277 437.1,161.4 264.6,205.5 "/>
<polygon class="st5" points="422.5,0 528.8,19.9 598.8,58.5 437.1,161.4 "/>
<polygon class="st6" points="619.2,215.2 515.5,277 437.1,161.4 598.8,58.5 644.4,83.7 639.1,167.7 660.4,178.4 653.7,221.3 "/>
<path class="st7" d="M83.7,341.1c0,0,25.8-120.5,92-147.8l23,20.5c0,0-40.5,7.2-83.7,127.2H83.7z"/>
<path class="st7" d="M185.5,221.1c0,0,127.7-11.8,189.7,36l8-29.2c0,0-50.7-38.1-197.7-38L185.5,221.1L185.5,221.1z"/>
<path class="st7" d="M332.7,87.1c0,0-102.6,26.9-147.3,102.8v31.2c0,0,78.8-99.6,153.9-104.2L332.7,87.1z"/>
<path class="st7" d="M576.5,192.9c0,0-83.8,83.5-193.3,66.2v-31.2c0,0,68.6,24.2,163.9-45.4L576.5,192.9z"/>
<path class="st7" d="M339.4,88.6c0,0,25.3,21.7,71.2,0c49.3-23.4,29.7-30.1,78.8-39l0.8,31.1c-10.1,0.2-20.1,2.3-29.3,6.3
	c-14.3,6.3-26.2,26.2-55.1,31.2c-21.3,3.7-44.5,2.6-66.3-1.4L339.4,88.6L339.4,88.6z"/>
<path class="st7" d="M583.5,92.3c-2.6-15.7-71.1-21.7-93.1-10.4l4.2-32.5c0,0,123.7-2,115.6,46.2c-7.5,44.7-46,10.7-63.2,36.9
	s20.8,35.2,20.8,35.2l-20.8,14.7c0,0-43.3-9.7-31.6-45.2c0,0,0.2-23.4,29.9-30S585.4,103.5,583.5,92.3z"/>
<path class="st7" d="M717.7,261.5c0,0-43.4-58.4-141.2-68.6l-8.5-25.1c0,0,113.9,10.7,168.5,70L717.7,261.5z"/>
<polygon class="st8" points="382.1,190.3 509.7,190.3 481.8,95.1 456.6,142.7 438,53.9 "/>
<path class="st7" d="M403.8,118.5c0,0-9.3,30,18.8,35.6s36.8,54.2-23.8,89.4l-8.7-7.1c0,0,32.9-19.9,30.1-43.5s-21.2-27.8-30.1-31.5
	s-18.2-25.7-11.6-40.9L403.8,118.5z"/>
<circle id="白沙" class="st9" cx="99.3" cy="341.1" r="15.6"/>
<circle id="坂里" class="st9" cx="185.5" cy="205.5" r="15.6"/>
<circle id="上村" class="st9" cx="383.2" cy="243.5" r="15.6"/>
<g id="塘岐">
	<circle class="st9" cx="562.7" cy="182.5" r="15.6"/>
</g>
<circle id="後沃" class="st9" cx="730.1" cy="252" r="15.6"/>
<circle id="橋仔" class="st9" cx="489.4" cy="65.3" r="15.6"/>
<circle id="芹壁" class="st9" cx="332.7" cy="102.8" r="15.6"/>
<g>
	<path id="Baisa_to_Banli" class="st10" d="M99.3,341.1c0,0,28-116,86.2-135.6"/>
	<path id="Sunchu_to_Tanchi" class="st10" d="M562.7,182.5c-80.7,89.2-179.5,61-179.5,61"/>
	<path id="Chiaz_to_Tanchi" class="st10" d="M489.4,65.3c0,0,57.6-14.2,93.2,8.2s12.1,35.6-4.2,38.4s-63.3,15.6-50,42.2
		s28.1,23.4,28.1,23.4"/>
	<path id="Banli_to_Chinbi" class="st10" d="M185.5,198.1c0,0,74.8-83.6,147.3-95.3"/>
	<path id="Tanchi_to_Howo" class="st10" d="M730.1,252c0,0-63.6-64.9-162.2-73"/>
	<path id="Chinbi_to_Chiaz" class="st10" d="M335.4,97c0,0,33.8,31.7,93.9,0s55.9-36.1,55.9-36.1"/>
	<path id="Chinbi_to_Sunchu" class="st10" d="M394.1,239.7c0,0,25.1-9.5,35.2-41.6s-34.1-34.7-39.2-50.6s0-36.5,0-36.5
		s-46.9,2.8-57.3-3.8"/>
	<path id="Banli_to_Sunchu" class="st10" d="M189.2,205.5c0,0,90.7-13.4,187,34.2"/>
</g>
</svg>
