<?xml version="1.0" encoding="UTF-8"?>
<svg width="95px" height="64px" viewBox="0 0 95 64" version="1.1" xmlns="http://www.w3.org/2000/svg" xmlns:xlink="http://www.w3.org/1999/xlink">
    <!-- Generator: Sketch 41 (35326) - http://www.bohemiancoding.com/sketch -->
    <title>Group</title>
    <desc>Created with Sketch.</desc>
    <defs></defs>
    <g id="Symbols" stroke="none" stroke-width="1" fill="none" fill-rule="evenodd">
        <g id="beigan-bg" transform="translate(-99.000000, -27.000000)" fill="#FFFFFF">
            <g id="Group-2" transform="translate(99.000000, 24.000000)">
                <g id="Group" transform="translate(0.000000, 3.000000)">
                    <path d="M72.8640777,16.5358852 L72.8640777,11.0239234 C72.8640777,4.93423998 67.9241304,0 61.8303967,0 L24.8686324,0 C18.7662117,0 13.8349515,4.93557864 13.8349515,11.0239234 L13.8349515,17.0448492 C13.8349515,19.8124488 16.0768078,22.0478469 18.8422777,22.0478469 L67.8567514,22.0478469 C68.5418919,22.0478469 69.1949008,21.910355 69.789644,21.6614794 L69.789644,22.0478469 L95,22.0478469 L95,16.5358852 L72.8640777,16.5358852 Z" id="logo-hat"></path>
                    <path d="M15.310593,24.8038278 L-5.68434189e-14,39.1633473 L14.1522191,39.1633473 C14.1522191,39.1633473 16.9743185,52.778563 23.7653705,55.645716 C23.7653705,55.8420855 31.2266406,56.9007388 36.0664519,51.8735213 C40.9062632,46.8463038 39.5206208,44.4289003 39.5206208,44.4289003 L42.74233,44.4289003 C42.74233,44.4289003 43.321399,55.1444987 27.5816776,58.7092386 C27.5816776,58.825635 34.1624854,64.3516944 45.056726,63.8378081 C61.623222,63.8378081 69.0825826,51.6557729 69.0825826,51.6557729 L81.1083365,39.3326373 L81.1083365,34.0711317 C81.1083365,34.0711317 78.8130836,29.7597821 74.1523002,29.2023461 C67.4196521,29.2023461 66.2389012,34.7521599 66.2389012,34.7521599 L66.2389012,38.5198967 L56.8269576,38.5198967 L56.8269576,24.9662486 L15.310593,24.8038278 Z M26.7475728,39.8086124 C23.6912397,39.8086124 21.2135922,37.3408231 21.2135922,34.2966507 C21.2135922,31.2524783 23.6912397,28.784689 26.7475728,28.784689 C29.8039059,28.784689 32.2815534,31.2524783 32.2815534,34.2966507 C32.2815534,37.3408231 29.8039059,39.8086124 26.7475728,39.8086124 Z" id="logo-face"></path>
                </g>
            </g>
        </g>
    </g>
</svg>